<svg width="512" height="512" viewBox="0 0 512 512" fill="none" xmlns="http://www.w3.org/2000/svg">
<rect width="512" height="512" fill="black"/>
<rect x="62.0264" y="62.0265" width="386.819" height="386.819" rx="45.1101" fill="white"/>
<path d="M215.852 116.114C208.935 118.971 207.883 124.234 207.883 155.961V185.283H177.057C143.375 185.283 139.315 186.035 136.007 193.553C134.654 196.41 134.203 221.973 134.203 292.194V387.076L138.563 391.436L142.924 395.797H172.095C210.288 395.797 207.582 398.504 208.183 361.664C208.634 335.199 208.785 334.297 212.243 330.538L215.852 326.628H288.179C334.341 326.628 362.61 326.027 366.219 324.974C370.129 323.922 372.835 321.816 374.79 318.659C377.647 313.997 377.797 310.238 377.797 219.266V124.835L372.685 119.723L367.572 114.611L293.291 114.761C252.542 114.761 217.656 115.362 215.852 116.114ZM302.012 190.245C305.471 194.305 305.621 195.057 305.621 221.522C305.621 248.287 305.621 248.588 301.862 252.196L298.253 255.956H256.752H215.251L211.642 252.196C207.883 248.588 207.883 248.588 207.883 216.86V185.133L253.143 185.584L298.404 186.035L302.012 190.245Z" fill="black"/>
</svg>
