<svg width="512" height="512" viewBox="0 0 512 512" fill="none" xmlns="http://www.w3.org/2000/svg">
<rect width="512" height="512" rx="59.7085" fill="white"/>
<path d="M203.606 71.5913C194.451 75.3728 193.057 82.3388 193.057 124.334V163.144H152.257C107.674 163.144 102.301 164.139 97.922 174.091C96.1308 177.872 95.5337 211.707 95.5337 304.653V430.24L101.306 436.012L107.077 441.784H145.689C196.242 441.784 192.659 445.366 193.456 396.604C194.053 361.575 194.252 360.381 198.829 355.405L203.606 350.231H299.339C360.44 350.231 397.857 349.435 402.634 348.041C407.809 346.648 411.391 343.862 413.979 339.682C417.76 333.512 417.959 328.537 417.959 208.125V83.1349L411.192 76.368L404.425 69.601L306.105 69.8C252.169 69.8 205.994 70.5962 203.606 71.5913ZM317.649 169.712C322.227 175.086 322.426 176.081 322.426 211.11C322.426 246.537 322.426 246.935 317.45 251.712L312.673 256.688H257.742H202.81L198.033 251.712C193.057 246.935 193.057 246.935 193.057 204.94V162.945L252.965 163.542L312.872 164.139L317.649 169.712Z" fill="black"/>
</svg>
